<svg width="10" height="10" viewBox="0 0 10 10" fill="none" xmlns="http://www.w3.org/2000/svg">
<g clip-path="url(#clip0_392_297)">
<path d="M8.7046 0.835996L8.74876 0.833496L8.80293 0.836829L8.84043 0.843496L8.89168 0.858079L8.93626 0.877246L8.97793 0.900996L9.01543 0.928913L9.04959 0.960163L9.07126 0.984746L9.10543 1.03308L9.1271 1.07308C9.14668 1.11475 9.15918 1.15891 9.1646 1.20475L9.16668 1.24891C9.16668 1.28016 9.16335 1.311 9.15668 1.34058L9.1421 1.39183L6.42043 8.92391C6.36883 9.03623 6.28609 9.13139 6.18203 9.19808C6.07796 9.26477 5.95695 9.3002 5.83335 9.30016C5.72202 9.30052 5.61251 9.27203 5.51547 9.21749C5.41842 9.16294 5.33716 9.08419 5.27959 8.98891L5.25251 8.936L3.85585 6.1435L1.07668 4.7535C0.973846 4.70647 0.885163 4.63326 0.819501 4.5412C0.753838 4.44914 0.713497 4.34146 0.702512 4.22891L0.700012 4.16683C0.700012 3.9335 0.825429 3.72016 1.05043 3.596L1.10876 3.56683L8.61585 0.855996L8.66001 0.843496L8.7046 0.835996Z" fill="#29BF12"/>
</g>
<defs>
<clipPath id="clip0_392_297">
<rect width="10" height="10" fill="white"/>
</clipPath>
</defs>
</svg>
