<svg width="20" height="20" viewBox="0 0 20 20" fill="none" xmlns="http://www.w3.org/2000/svg">
<path d="M6.66667 14.6297C7.19722 15.5729 7.2209 16.7392 8.01126 17.5198C8.53871 18.0408 9.25408 18.3334 10 18.3334C10.7459 18.3334 11.4613 18.0408 11.9887 17.5198C12.7791 16.7392 12.8028 15.5729 13.3333 14.6297M8.125 3.5186C8.125 3.02746 8.32255 2.55643 8.67418 2.20914C9.02581 1.86185 9.50272 1.66675 10 1.66675C10.4973 1.66675 10.9742 1.86185 11.3258 2.20914C11.6775 2.55643 11.875 3.02746 11.875 3.5186C12.9516 4.0214 13.8694 4.80409 14.53 5.78277C15.1907 6.76145 15.5692 7.89922 15.625 9.07416C15.625 11.1628 15.8333 13.3334 16.6667 14.6297H3.33334C4.16667 13.3334 4.375 11.1628 4.375 9.07416C4.43084 7.89922 4.80935 6.76145 5.46996 5.78277C6.13056 4.80409 7.04837 4.0214 8.125 3.5186Z" stroke="white" stroke-width="2" stroke-linecap="round" stroke-linejoin="round"/>
</svg>
