<svg width="10" height="11" viewBox="0 0 10 11" fill="none" xmlns="http://www.w3.org/2000/svg">
<g clip-path="url(#clip0_392_291)">
<path d="M3.43458 3.5583L0.776244 3.94372L0.729161 3.9533C0.657885 3.97222 0.592909 4.00972 0.540866 4.06197C0.488823 4.11422 0.451579 4.17934 0.432937 4.25069C0.414294 4.32204 0.414922 4.39705 0.434756 4.46808C0.454589 4.53911 0.492918 4.6036 0.545827 4.65497L2.47166 6.52955L2.01749 9.17747L2.01208 9.2233C2.00771 9.29702 2.02302 9.37057 2.05643 9.43643C2.08984 9.50229 2.14015 9.55808 2.20222 9.5981C2.26428 9.63812 2.33586 9.66092 2.40964 9.66418C2.48341 9.66744 2.55673 9.65103 2.62208 9.61663L4.99958 8.36663L7.37166 9.61663L7.41333 9.6358C7.4821 9.66289 7.55685 9.6712 7.62989 9.65987C7.70294 9.64854 7.77165 9.61798 7.82899 9.57133C7.88633 9.52468 7.93022 9.46361 7.95617 9.3944C7.98212 9.32519 7.98919 9.25032 7.97666 9.17747L7.52208 6.52955L9.44874 4.65455L9.48124 4.61913C9.52767 4.56195 9.55811 4.49349 9.56946 4.42072C9.58081 4.34794 9.57267 4.27346 9.54586 4.20486C9.51906 4.13625 9.47455 4.07598 9.41686 4.03018C9.35918 3.98438 9.29039 3.95469 9.21749 3.94413L6.55916 3.5583L5.37083 1.14997C5.33644 1.08019 5.28321 1.02143 5.21716 0.980345C5.1511 0.939257 5.07487 0.91748 4.99708 0.91748C4.91929 0.91748 4.84305 0.939257 4.777 0.980345C4.71094 1.02143 4.65771 1.08019 4.62333 1.14997L3.43458 3.5583Z" fill="#29BF12"/>
</g>
<defs>
<clipPath id="clip0_392_291">
<rect width="10" height="10" fill="white" transform="translate(0 0.5)"/>
</clipPath>
</defs>
</svg>
